<svg width="76" height="73" viewBox="0 0 76 73" fill="none" xmlns="http://www.w3.org/2000/svg">
<path d="M38.3055 0.659424C58.9899 0.659424 75.7568 16.8013 75.7568 36.7146C75.7568 56.6279 58.9899 72.7698 38.3055 72.7698C17.6211 72.7698 0.854126 56.6279 0.854126 36.7146C0.854126 16.8013 17.6211 0.659424 38.3055 0.659424ZM38.3055 15.0815C37.3122 15.0815 36.3596 15.4614 35.6573 16.1375C34.9549 16.8137 34.5603 17.7308 34.5603 18.687V36.7146C34.5606 37.6708 34.9553 38.5877 35.6577 39.2637L46.8931 50.0802C47.5994 50.737 48.5454 51.1004 49.5274 51.0922C50.5094 51.084 51.4487 50.7048 52.1431 50.0363C52.8374 49.3678 53.2313 48.4635 53.2399 47.5182C53.2484 46.5728 52.8709 45.6621 52.1887 44.982L42.0506 35.2219V18.687C42.0506 17.7308 41.656 16.8137 40.9537 16.1375C40.2513 15.4614 39.2987 15.0815 38.3055 15.0815Z" fill="white"/>
</svg>
