<svg width="86" height="73" viewBox="0 0 86 73" fill="none" xmlns="http://www.w3.org/2000/svg">
<path fill-rule="evenodd" clip-rule="evenodd" d="M45.1301 40.5869C45.1301 44.8352 46.2607 48.8197 48.2379 52.2566L45.1483 53.4998L30.1908 59.3513V11.0968L51.5326 1.07861V24.4895C47.5633 28.6897 45.1301 34.3545 45.1301 40.5869ZM85.6793 12.0987V24.4897C81.3992 19.9603 75.333 17.1336 68.6059 17.1336C63.8819 17.1336 59.4836 18.5278 55.8009 20.9266V0.878122L85.6793 12.0987ZM25.9225 59.2609V11.1738L0.312439 0.0767822V48.1639L25.9225 59.2609ZM68.6046 25.6621C77.2482 25.6621 84.2551 32.6622 84.2551 41.2975C84.2551 44.1458 83.495 46.8145 82.1609 49.1162C80.8268 51.4176 68.6046 72.5685 68.6046 72.5685C68.6046 72.5685 56.3823 51.4176 55.0482 49.1162C53.7141 46.8145 52.954 44.1458 52.954 41.2975C52.954 32.6622 59.9609 25.6621 68.6046 25.6621ZM75.3118 41.2975C75.3118 44.9983 72.3086 47.9984 68.6044 47.9984C64.9001 47.9984 61.8969 44.9983 61.8969 41.2975C61.8969 37.5968 64.8999 34.5965 68.6044 34.5965C72.3086 34.5965 75.3118 37.5968 75.3118 41.2975Z" fill="white"/>
</svg>
