<svg width="79" height="72" viewBox="0 0 79 72" fill="none" xmlns="http://www.w3.org/2000/svg">
<path fill-rule="evenodd" clip-rule="evenodd" d="M37.5268 0.659424C41.4066 0.658416 45.1801 1.92514 48.2702 4.26594C51.3604 6.60675 53.5972 9.89282 54.6387 13.6218L54.8439 14.429L62.2239 12.5902C62.7633 12.4562 63.325 12.4375 63.8722 12.5351C64.4193 12.6328 64.9397 12.8447 65.3991 13.157C65.8585 13.4692 66.2466 13.8748 66.5379 14.3471C66.8293 14.8194 67.0174 15.3478 67.0899 15.8977L67.1254 16.4096V23.5365C69.3514 25.6639 71.1749 28.1742 72.5084 30.947L73.053 32.1597H75.0184C75.985 32.1599 76.918 32.5139 77.6403 33.1548C78.3627 33.7957 78.8242 34.6788 78.9372 35.6366L78.9649 36.0973V47.9099C78.965 48.558 78.8047 49.1961 78.4984 49.7675C78.192 50.339 77.749 50.8262 77.2087 51.1859L76.7825 51.43L72.173 53.7335C70.2891 57.3782 67.5551 60.518 64.2011 62.8883L63.1789 63.5734V67.5976C63.1788 68.562 62.8239 69.4928 62.1816 70.2136C61.5393 70.9343 60.6542 71.3947 59.6942 71.5075L59.2324 71.5351H47.393C46.4263 71.535 45.4934 71.1809 44.771 70.54C44.0487 69.8992 43.5872 69.0161 43.4741 68.0583L43.4465 67.5976H39.5C39.4999 68.562 39.145 69.4928 38.5027 70.2136C37.8603 70.9343 36.9752 71.3947 36.0153 71.5075L35.5535 71.5351H23.7141C22.7474 71.535 21.8145 71.1809 21.0921 70.54C20.3698 69.8992 19.9083 69.0161 19.7952 68.0583L19.7676 67.5976V63.5734C16.9154 61.7561 14.4518 59.3938 12.5188 56.6224C10.5857 53.851 9.22133 50.7253 8.50429 47.4256C6.17658 46.7355 4.11782 45.3481 2.60709 43.4513C1.09636 41.5545 0.206737 39.24 0.0588124 36.8218L0.0351334 36.0973V34.1285C0.0362491 33.1249 0.421412 32.1596 1.11193 31.4298C1.80244 30.7001 2.74618 30.2609 3.75034 30.2021C4.75449 30.1433 5.74325 30.4692 6.5146 31.1134C7.28596 31.7575 7.78168 32.6712 7.90048 33.6678L7.92811 34.1285V36.0973C7.93337 36.6853 8.05176 37.23 8.28329 37.7313C8.88471 34.1861 10.2281 30.8071 12.2259 27.8145C14.2237 24.8219 16.831 22.2829 19.8781 20.3629C19.5981 17.8841 19.8458 15.3743 20.605 12.9977C21.3642 10.621 22.6178 8.43111 24.2837 6.57118C25.9497 4.71125 27.9905 3.22324 30.2726 2.2045C32.5547 1.18576 35.0267 0.659251 37.5268 0.659424ZM55.2859 32.1597C54.2393 32.1597 53.2355 32.5746 52.4954 33.313C51.7552 34.0514 51.3395 35.053 51.3395 36.0973C51.3395 37.1416 51.7552 38.1431 52.4954 38.8815C53.2355 39.62 54.2393 40.0348 55.2859 40.0348C56.3326 40.0348 57.3364 39.62 58.0765 38.8815C58.8166 38.1431 59.2324 37.1416 59.2324 36.0973C59.2324 35.053 58.8166 34.0514 58.0765 33.313C57.3364 32.5746 56.3326 32.1597 55.2859 32.1597ZM37.5268 8.5345C35.1363 8.53449 32.8272 9.40037 31.0285 10.9712C29.2298 12.542 28.0639 14.711 27.7474 17.075C29.6597 16.6312 31.6168 16.4079 33.5803 16.4096H46.9076L47.1838 16.3426C46.7158 14.1335 45.5009 12.1521 43.7426 10.7305C41.9844 9.30888 39.7898 8.53356 37.5268 8.5345Z" fill="white"/>
</svg>
