<svg width="84" height="80" viewBox="0 0 84 80" fill="none" xmlns="http://www.w3.org/2000/svg">
<path d="M66.9 9.12155V0.547974H17.1V9.12155H0.5V21.3374C0.5 31.8361 8.33935 40.4554 18.4446 41.8442C19.8928 46.0964 22.4603 49.8779 25.876 52.7892C29.2916 55.7005 33.4286 57.6336 37.85 58.3843V62.9164C37.85 65.1219 36.9755 67.237 35.419 68.7965C33.8624 70.3561 31.7513 71.2322 29.55 71.2322H25.4V79.548H58.6V71.2322H54.45C52.2487 71.2322 50.1376 70.3561 48.581 68.7965C47.0245 67.237 46.15 65.1219 46.15 62.9164V58.3843C50.5714 57.6336 54.7084 55.7005 58.124 52.7892C61.5397 49.8779 64.1072 46.0964 65.5554 41.8442C75.6607 40.4554 83.5 31.8361 83.5 21.3374V9.12155H66.9ZM8.8 21.3374V17.4373H17.1V33.096C14.6729 32.2362 12.5715 30.6439 11.0851 28.5381C9.59871 26.4323 8.80037 23.9166 8.8 21.3374ZM75.2 21.3374C75.1945 23.9159 74.3941 26.4297 72.9085 28.5352C71.4228 30.6406 69.3244 32.2349 66.9 33.1001V17.4373H75.2V21.3374Z" fill="white"/>
</svg>
