<svg width="76" height="79" viewBox="0 0 76 79" fill="none" xmlns="http://www.w3.org/2000/svg">
<path d="M37.8058 0.207397C58.4902 0.207397 75.2572 16.3493 75.2572 36.2626C75.2572 56.1758 58.4902 72.3177 37.8058 72.3177C17.1215 72.3177 0.354492 56.1758 0.354492 36.2626C0.354492 16.3493 17.1215 0.207397 37.8058 0.207397ZM37.8058 14.6295C36.8126 14.6295 35.86 15.0093 35.1576 15.6855C34.4553 16.3617 34.0607 17.2787 34.0607 18.235V36.2626C34.0609 37.2187 34.4556 38.1357 35.158 38.8117L46.3934 49.6282C47.0998 50.285 48.0458 50.6484 49.0278 50.6402C50.0097 50.632 50.9491 50.2528 51.6434 49.5843C52.3378 48.9158 52.7317 48.0115 52.7402 47.0661C52.7488 46.1208 52.3713 45.21 51.6891 44.53L41.551 34.7699V18.235C41.551 17.2787 41.1564 16.3617 40.4541 15.6855C39.7517 15.0093 38.7991 14.6295 37.8058 14.6295Z" fill="white"/>
</svg>
