<svg width="69" height="70" viewBox="0 0 69 70" fill="none" xmlns="http://www.w3.org/2000/svg">
<path fill-rule="evenodd" clip-rule="evenodd" d="M62.7624 8.3815C61.7382 3.51774 57.408 0.313059 52.4799 0.56146C47.7849 0.797594 40.474 1.34346 30.1991 2.5916C19.9258 3.83821 12.6962 5.05875 8.08394 5.95115C3.23709 6.89109 -0.18683 11.0449 0.00790275 16.0129C0.173502 20.2327 0.613567 26.573 1.69456 35.2886C2.1607 39.0422 2.63603 42.3404 3.09296 45.2093C3.17883 51.2951 3.45176 55.9227 3.73696 59.2409C4.19849 64.5876 8.42741 68.5574 13.6959 68.9116C18.3818 69.226 25.6973 69.548 36.0319 69.548C46.3665 69.548 53.6836 69.226 58.3694 68.9116C63.638 68.5574 67.8669 64.5876 68.3269 59.2409C68.6734 55.2266 69 49.2925 69 41.1812C69 33.0683 68.6734 27.1358 68.3284 23.12C68.2084 21.6272 67.7697 20.1774 67.0417 18.8686C66.3138 17.5598 65.3136 16.4224 64.1087 15.533C63.7083 13.1403 63.2595 10.756 62.7624 8.3815ZM36.0334 18.9462C25.8246 18.9462 18.6455 19.2636 14.1069 19.5687C11.7547 19.7282 10.0405 21.418 9.8488 23.6474C9.5176 27.4747 9.19867 33.2308 9.19867 41.1812C9.19867 49.1285 9.5176 54.8862 9.8488 58.7149C10.0405 60.9444 11.7547 62.6341 14.1069 62.7921C18.6455 63.0972 25.8246 63.4146 36.0334 63.4146C46.2408 63.4146 53.4199 63.0972 57.9585 62.7921C60.3106 62.6341 62.0249 60.9444 62.2166 58.7134C62.5478 54.8862 62.8667 49.13 62.8667 41.1812C62.8667 33.2323 62.5478 27.4747 62.2166 23.6474C62.0249 21.418 60.3106 19.7282 57.9585 19.5687C53.4199 19.2636 46.2423 18.9462 36.0334 18.9462ZM15.102 24.7177C14.2887 24.7177 13.5086 25.0408 12.9335 25.6159C12.3584 26.191 12.0353 26.9711 12.0353 27.7844C12.0353 28.5977 12.3584 29.3777 12.9335 29.9529C13.5086 30.528 14.2887 30.8511 15.102 30.8511H27.0619C27.8753 30.8511 28.6553 30.528 29.2304 29.9529C29.8055 29.3777 30.1286 28.5977 30.1286 27.7844C30.1286 26.9711 29.8055 26.191 29.2304 25.6159C28.6553 25.0408 27.8753 24.7177 27.0619 24.7177H15.102ZM12.0353 54.5734C12.0353 53.76 12.3584 52.98 12.9335 52.4049C13.5086 51.8298 14.2887 51.5067 15.102 51.5067H56.9618C57.7752 51.5067 58.5552 51.8298 59.1303 52.4049C59.7054 52.98 60.0285 53.76 60.0285 54.5734C60.0285 55.3867 59.7054 56.1667 59.1303 56.7418C58.5552 57.317 57.7752 57.6401 56.9618 57.6401H15.102C14.2887 57.6401 13.5086 57.317 12.9335 56.7418C12.3584 56.1667 12.0353 55.3867 12.0353 54.5734ZM15.102 33.6479C14.2887 33.6479 13.5086 33.971 12.9335 34.5461C12.3584 35.1212 12.0353 35.9012 12.0353 36.7146C12.0353 37.5279 12.3584 38.3079 12.9335 38.883C13.5086 39.4581 14.2887 39.7812 15.102 39.7812H27.0619C27.8753 39.7812 28.6553 39.4581 29.2304 38.883C29.8055 38.3079 30.1286 37.5279 30.1286 36.7146C30.1286 35.9012 29.8055 35.1212 29.2304 34.5461C28.6553 33.971 27.8753 33.6479 27.0619 33.6479H15.102ZM12.0369 45.7812C12.0369 44.9679 12.36 44.1878 12.9351 43.6127C13.5102 43.0376 14.2902 42.7145 15.1035 42.7145H27.0635C27.8768 42.7145 28.6568 43.0376 29.2319 43.6127C29.807 44.1878 30.1301 44.9679 30.1301 45.7812C30.1301 46.5945 29.807 47.3746 29.2319 47.9497C28.6568 48.5248 27.8768 48.8479 27.0635 48.8479H15.1035C14.2902 48.8479 13.5102 48.5248 12.9351 47.9497C12.36 47.3746 12.0369 46.5945 12.0369 45.7812ZM40.8665 25.216C42.3998 25.1394 44.3533 25.0811 46.7667 25.0811C49.1802 25.0811 51.1337 25.1394 52.667 25.216C55.6769 25.3678 57.98 27.6709 58.1318 30.6809C58.2084 32.2142 58.2667 34.1677 58.2667 36.5812C58.2667 38.9946 58.2084 40.9481 58.1318 42.4815C57.98 45.4914 55.6769 47.7945 52.667 47.9463C51.1337 48.0229 49.1802 48.0812 46.7667 48.0812C44.3533 48.0812 42.3998 48.0229 40.8665 47.9463C37.8566 47.7945 35.5535 45.4914 35.4017 42.4815C35.3251 40.9481 35.2668 38.9946 35.2668 36.5812C35.2668 34.1677 35.3251 32.2142 35.4017 30.6809C35.5535 27.6709 37.8566 25.3678 40.8665 25.216Z" fill="white"/>
</svg>
