<svg width="23" height="23" viewBox="0 0 23 23" fill="none" xmlns="http://www.w3.org/2000/svg">
<path fill-rule="evenodd" clip-rule="evenodd" d="M2.82617 0H6.87562C7.04031 0 7.20109 0.0505753 7.3365 0.144978C7.4719 0.239381 7.5755 0.373121 7.63348 0.528355L9.20532 4.73563C9.25713 4.87476 9.2702 5.02551 9.24311 5.17158L8.45503 9.42451C9.4234 11.7162 11.0222 13.2567 13.6726 14.6385L17.8451 13.8231C17.9934 13.7944 18.1467 13.8079 18.2877 13.8623L22.4786 15.4712C22.6318 15.53 22.7636 15.6342 22.8568 15.7701C22.9499 15.906 22.9998 16.0672 23 16.2323V20.1286C23 21.8963 21.4541 23.3303 19.6447 22.9335C16.3488 22.2116 10.2417 20.3754 5.96447 16.0681C1.86644 11.9424 0.493235 6.24351 0.0322613 3.16361C-0.232232 1.4046 1.16796 0 2.82617 0Z" fill="white"/>
</svg>
