<svg width="25" height="26" viewBox="0 0 25 26" fill="none" xmlns="http://www.w3.org/2000/svg">
<path d="M12.5 10.4444C11.9127 10.4444 11.3312 10.3288 10.7886 10.104C10.246 9.87927 9.75295 9.54984 9.33766 9.13456C8.92238 8.71928 8.59295 8.22626 8.36821 7.68367C8.14345 7.14107 8.02778 6.55952 8.02778 5.97222C8.02778 5.38492 8.14345 4.80337 8.36821 4.26078C8.59295 3.71818 8.92238 3.22517 9.33766 2.80988C9.75295 2.3946 10.246 2.06518 10.7886 1.84043C11.3312 1.61568 11.9127 1.5 12.5 1.5C13.6861 1.5 14.8236 1.97118 15.6623 2.80988C16.501 3.64859 16.9722 4.78612 16.9722 5.97222C16.9722 7.15833 16.501 8.29586 15.6623 9.13456C14.8236 9.97326 13.6861 10.4444 12.5 10.4444ZM24 23.7333V24.5H1V23.7333C1 20.8711 1 19.44 1.55711 18.3462C2.04712 17.3845 2.82899 16.6027 3.79067 16.1127C4.88445 15.5556 6.31556 15.5556 9.17778 15.5556H15.8222C18.6844 15.5556 20.1156 15.5556 21.2093 16.1127C22.171 16.6027 22.9529 17.3845 23.4429 18.3462C24 19.44 24 20.8711 24 23.7333Z" fill="white" stroke="white" stroke-width="2" stroke-linecap="round" stroke-linejoin="round"/>
</svg>
